<?xml version="1.0" encoding="UTF-8"?>
<svg id="katman_2" data-name="katman 2" xmlns="http://www.w3.org/2000/svg" viewBox="0 0 572.99 354.7">
  <defs>
    <style>
      .cls-1, .cls-2 {
        stroke-width: 0px;
      }

      .cls-2 {
        fill: #0097f4;
      }
    </style>
  </defs>
  <g id="Layer_1" data-name="Layer 1">
    <g>
      <path class="cls-2" d="m183.74,197.66c-2.11-7.11-65.62-54.69-72.21-54.85,2.47-13.12,11.14-49.72,43.74-80.54,38.45-36.35,83.82-39.75,95.81-40.27,13.84-.29,39.48.99,68.04,13.89,27.07,12.22,44.45,29.31,53.46,39.58,47.17-15.18,98.7-4.38,134.69,28.47,50.34,45.95,43.81,110.89,43.05,117.34-.71,10.3-4.3,43.24-30.55,72.21-31.17,34.39-71.69,38.25-80.54,38.88H97.65c-4.12.45-31.33,2.97-53.46-17.36-24.39-22.39-21.87-53.46-21.52-56.93-1.16-11.18-1.79-33.43,9.72-56.93,22.62-46.2,72.44-56.98,79.15-58.32"/>
      <path class="cls-1" d="m174.59,200.37c.09.47.31.94.46,1.39.25.53-.26.09-.44-.03-10.86-7.99-22.81-14.69-34.6-21.36-11.05-5.98-22.19-12.35-33.76-16.82-.61-.2-1.24-.39-1.45-.34-.1.02-.1.1.24.31l.05.03.14.07.28.13c1.73.7,3.58,1,5.46,1.07,0,0-21.07-26.07-21.07-26.07C103.96,62.82,167.66,6.16,244.52.37c54.1-3.64,109.02,19.74,144.6,60.58,0,0-23.27-6.42-23.27-6.42,85.76-28.31,181.11,21.85,201.92,110.68,5.14,20.6,6.48,41.96,4.03,62.93-5.76,55.83-44.92,103.88-98.78,119.98-10.86,3.32-22.1,5.65-33.78,6.24,0,0-341.59,0-341.59,0l2.39-.13c-6.98.74-13.23.57-20-.17C30.4,348.55-3.28,305.28.77,255.91c0,0,.01,4.42.01,4.42-4.6-40.31,11.4-82.64,42.98-108.5,18.36-15.34,40.13-25.61,63.47-30.59,0,0,8.61,43.15,8.61,43.15-20.84,4.57-41.28,15.57-54.72,32.31-13.77,16.95-19.15,39.77-16.34,61.34-1.65,14.1,2.88,29.64,13.06,39.58,9.83,9.95,24.83,14.38,38.62,12.74,0,0,1.19,0,1.19,0-1.01-.68,347.47.42,340.03.05,14.8-1.11,30.31-5.92,43.22-13.45,19.68-11.37,34.74-29.87,42.13-51.36,12.23-36.11,5.53-81.45-17.81-111.54-28.41-37.62-81.41-52.57-125.89-37.65,0,0-13.71,4.42-13.71,4.42,0,0-9.56-10.84-9.56-10.84-24.81-28.47-61.88-45.58-99.65-46-60.72.39-112.06,43.22-123.26,102.9,0,0-21.07-26.07-21.07-26.07,2.1.1,4.12.43,6.1,1.05.85.26,1.77.61,2.58.97,8.24,4,14.46,10.3,21.08,16.04,11.76,10.74,22.78,21.65,33.65,33.23,5.16,5.63,10.43,11.22,14.85,17.64.6.92,1.27,2.02,1.73,3.01.34.7.6,1.45.82,2.19,0,0-18.29,5.42-18.29,5.42h0Z"/>
    </g>
  </g>
</svg>