<svg xmlns="http://www.w3.org/2000/svg" xmlns:xlink="http://www.w3.org/1999/xlink" width="1080" zoomAndPan="magnify" viewBox="0 0 810 1439.999935" height="1920" preserveAspectRatio="xMidYMid meet" version="1.0"><defs><g/></defs><rect x="-81" width="972" fill="#ffffff" y="-143.999994" height="1727.999922" fill-opacity="1"/><rect x="-81" width="972" fill="#000000" y="-143.999994" height="1727.999922" fill-opacity="1"/><g fill="#ffffff" fill-opacity="1"><g transform="translate(269.797832, 508.878776)"><g><path d="M 39.375 0 L 26.78125 0 L -2.09375 -53.859375 L 19.3125 -53.859375 L 32.4375 -24.78125 L 45.359375 -53.859375 L 58.171875 -53.859375 L 71.078125 -24.78125 L 84.203125 -53.859375 L 105.625 -53.859375 L 76.75 0 L 64.15625 0 L 51.765625 -27.828125 Z M 39.375 0 "/></g></g></g><g fill="#ffffff" fill-opacity="1"><g transform="translate(368.077899, 508.878776)"><g><path d="M 6.296875 0 L 6.296875 -90.296875 L 24.890625 -90.296875 L 24.890625 -48.1875 L 25.09375 -48.1875 C 29.925781 -53.019531 35.070312 -55.4375 40.53125 -55.4375 C 43.1875 -55.4375 45.828125 -55.085938 48.453125 -54.390625 C 51.078125 -53.691406 53.597656 -52.609375 56.015625 -51.140625 C 58.429688 -49.671875 60.390625 -47.585938 61.890625 -44.890625 C 63.398438 -42.191406 64.15625 -39.054688 64.15625 -35.484375 L 64.15625 0 L 45.5625 0 L 45.5625 -30.453125 C 45.5625 -33.253906 44.671875 -35.703125 42.890625 -37.796875 C 41.109375 -39.898438 38.78125 -40.953125 35.90625 -40.953125 C 33.101562 -40.953125 30.566406 -39.863281 28.296875 -37.6875 C 26.023438 -35.519531 24.890625 -33.109375 24.890625 -30.453125 L 24.890625 0 Z M 6.296875 0 "/></g></g></g><g fill="#ffffff" fill-opacity="1"><g transform="translate(432.232945, 508.878776)"><g><path d="M 9.96875 -6.65625 C 4.9375 -12.15625 2.421875 -18.894531 2.421875 -26.875 C 2.421875 -34.851562 4.9375 -41.609375 9.96875 -47.140625 C 15.007812 -52.671875 21.414062 -55.4375 29.1875 -55.4375 C 36.332031 -55.4375 42.210938 -53.195312 46.828125 -48.71875 L 46.828125 -53.859375 L 65.421875 -53.859375 L 65.421875 0 L 47.046875 0 L 47.046875 -6.09375 L 46.828125 -6.09375 C 42.210938 -0.976562 36.332031 1.578125 29.1875 1.578125 C 21.414062 1.578125 15.007812 -1.164062 9.96875 -6.65625 Z M 25.78125 -36 C 23.363281 -33.625 22.15625 -30.582031 22.15625 -26.875 C 22.15625 -23.164062 23.304688 -20.140625 25.609375 -17.796875 C 27.921875 -15.453125 30.96875 -14.28125 34.75 -14.28125 C 38.394531 -14.28125 41.390625 -15.46875 43.734375 -17.84375 C 46.078125 -20.226562 47.25 -23.238281 47.25 -26.875 C 47.25 -30.582031 46.039062 -33.625 43.625 -36 C 41.207031 -38.382812 38.25 -39.578125 34.75 -39.578125 C 31.1875 -39.578125 28.195312 -38.382812 25.78125 -36 Z M 25.78125 -36 "/></g></g></g><g fill="#ffffff" fill-opacity="1"><g transform="translate(498.698005, 508.878776)"><g><path d="M 9.453125 -53.859375 L 9.453125 -73.921875 L 28.03125 -73.921875 L 28.03125 -53.859375 L 39.375 -53.859375 L 39.375 -39.6875 L 28.03125 -39.6875 L 28.03125 -22.578125 C 28.03125 -17.609375 29.429688 -15.125 32.234375 -15.125 C 32.929688 -15.125 33.664062 -15.257812 34.4375 -15.53125 C 35.207031 -15.8125 35.800781 -16.09375 36.21875 -16.375 L 36.859375 -16.796875 L 41.46875 -1.78125 C 37.476562 0.457031 32.929688 1.578125 27.828125 1.578125 C 24.328125 1.578125 21.316406 0.96875 18.796875 -0.25 C 16.273438 -1.476562 14.363281 -3.125 13.0625 -5.1875 C 11.769531 -7.257812 10.84375 -9.429688 10.28125 -11.703125 C 9.726562 -13.984375 9.453125 -16.414062 9.453125 -19 L 9.453125 -39.6875 L 1.6875 -39.6875 L 1.6875 -53.859375 Z M 9.453125 -53.859375 "/></g></g></g><g fill="#ffffff" fill-opacity="1"><g transform="translate(253.89549, 608.628767)"><g><path d="M 9.96875 -6.65625 C 4.9375 -12.15625 2.421875 -18.894531 2.421875 -26.875 C 2.421875 -34.851562 4.9375 -41.609375 9.96875 -47.140625 C 15.007812 -52.671875 21.414062 -55.4375 29.1875 -55.4375 C 36.332031 -55.4375 42.210938 -53.195312 46.828125 -48.71875 L 46.828125 -53.859375 L 65.421875 -53.859375 L 65.421875 0 L 47.046875 0 L 47.046875 -6.09375 L 46.828125 -6.09375 C 42.210938 -0.976562 36.332031 1.578125 29.1875 1.578125 C 21.414062 1.578125 15.007812 -1.164062 9.96875 -6.65625 Z M 25.78125 -36 C 23.363281 -33.625 22.15625 -30.582031 22.15625 -26.875 C 22.15625 -23.164062 23.304688 -20.140625 25.609375 -17.796875 C 27.921875 -15.453125 30.96875 -14.28125 34.75 -14.28125 C 38.394531 -14.28125 41.390625 -15.46875 43.734375 -17.84375 C 46.078125 -20.226562 47.25 -23.238281 47.25 -26.875 C 47.25 -30.582031 46.039062 -33.625 43.625 -36 C 41.207031 -38.382812 38.25 -39.578125 34.75 -39.578125 C 31.1875 -39.578125 28.195312 -38.382812 25.78125 -36 Z M 25.78125 -36 "/></g></g></g><g fill="#ffffff" fill-opacity="1"><g transform="translate(320.360537, 608.628767)"><g><path d="M 61.734375 -47.140625 C 66.773438 -41.609375 69.296875 -34.851562 69.296875 -26.875 C 69.296875 -18.894531 66.773438 -12.15625 61.734375 -6.65625 C 56.703125 -1.164062 50.300781 1.578125 42.53125 1.578125 C 35.382812 1.578125 29.503906 -0.976562 24.890625 -6.09375 L 24.671875 -6.09375 L 24.671875 0 L 6.296875 0 L 6.296875 -90.296875 L 24.890625 -90.296875 L 24.890625 -48.71875 C 29.503906 -53.195312 35.382812 -55.4375 42.53125 -55.4375 C 50.300781 -55.4375 56.703125 -52.671875 61.734375 -47.140625 Z M 46.09375 -17.796875 C 48.40625 -20.140625 49.5625 -23.164062 49.5625 -26.875 C 49.5625 -30.582031 48.351562 -33.625 45.9375 -36 C 43.519531 -38.382812 40.523438 -39.578125 36.953125 -39.578125 C 33.453125 -39.578125 30.492188 -38.382812 28.078125 -36 C 25.671875 -33.625 24.46875 -30.582031 24.46875 -26.875 C 24.46875 -23.238281 25.640625 -20.226562 27.984375 -17.84375 C 30.328125 -15.46875 33.316406 -14.28125 36.953125 -14.28125 C 40.734375 -14.28125 43.78125 -15.453125 46.09375 -17.796875 Z M 46.09375 -17.796875 "/></g></g></g><g fill="#ffffff" fill-opacity="1"><g transform="translate(386.825585, 608.628767)"><g><path d="M 11.390625 -6.40625 C 5.410156 -11.726562 2.421875 -18.550781 2.421875 -26.875 C 2.421875 -35.207031 5.535156 -42.050781 11.765625 -47.40625 C 17.992188 -52.757812 25.691406 -55.4375 34.859375 -55.4375 C 43.890625 -55.4375 51.5 -52.738281 57.6875 -47.34375 C 63.882812 -41.957031 66.984375 -35.132812 66.984375 -26.875 C 66.984375 -18.613281 63.957031 -11.804688 57.90625 -6.453125 C 51.851562 -1.097656 44.171875 1.578125 34.859375 1.578125 C 25.203125 1.578125 17.378906 -1.082031 11.390625 -6.40625 Z M 25.78125 -36 C 23.363281 -33.625 22.15625 -30.582031 22.15625 -26.875 C 22.15625 -23.164062 23.304688 -20.140625 25.609375 -17.796875 C 27.921875 -15.453125 30.96875 -14.28125 34.75 -14.28125 C 38.394531 -14.28125 41.390625 -15.46875 43.734375 -17.84375 C 46.078125 -20.226562 47.25 -23.238281 47.25 -26.875 C 47.25 -30.582031 46.039062 -33.625 43.625 -36 C 41.207031 -38.382812 38.25 -39.578125 34.75 -39.578125 C 31.1875 -39.578125 28.195312 -38.382812 25.78125 -36 Z M 25.78125 -36 "/></g></g></g><g fill="#ffffff" fill-opacity="1"><g transform="translate(450.980632, 608.628767)"><g><path d="M 23.828125 -53.859375 L 23.828125 -28.25 C 23.828125 -22.925781 24.632812 -19.144531 26.25 -16.90625 C 27.863281 -14.664062 30.59375 -13.546875 34.4375 -13.546875 C 38.289062 -13.546875 41.019531 -14.664062 42.625 -16.90625 C 44.238281 -19.144531 45.046875 -22.925781 45.046875 -28.25 L 45.046875 -53.859375 L 63.625 -53.859375 L 63.625 -23.734375 C 63.625 -14.773438 61.296875 -8.316406 56.640625 -4.359375 C 51.992188 -0.398438 44.59375 1.578125 34.4375 1.578125 C 24.289062 1.578125 16.890625 -0.398438 12.234375 -4.359375 C 7.578125 -8.316406 5.25 -14.773438 5.25 -23.734375 L 5.25 -53.859375 Z M 23.828125 -53.859375 "/></g></g></g><g fill="#ffffff" fill-opacity="1"><g transform="translate(514.610692, 608.628767)"><g><path d="M 9.453125 -53.859375 L 9.453125 -73.921875 L 28.03125 -73.921875 L 28.03125 -53.859375 L 39.375 -53.859375 L 39.375 -39.6875 L 28.03125 -39.6875 L 28.03125 -22.578125 C 28.03125 -17.609375 29.429688 -15.125 32.234375 -15.125 C 32.929688 -15.125 33.664062 -15.257812 34.4375 -15.53125 C 35.207031 -15.8125 35.800781 -16.09375 36.21875 -16.375 L 36.859375 -16.796875 L 41.46875 -1.78125 C 37.476562 0.457031 32.929688 1.578125 27.828125 1.578125 C 24.328125 1.578125 21.316406 0.96875 18.796875 -0.25 C 16.273438 -1.476562 14.363281 -3.125 13.0625 -5.1875 C 11.769531 -7.257812 10.84375 -9.429688 10.28125 -11.703125 C 9.726562 -13.984375 9.453125 -16.414062 9.453125 -19 L 9.453125 -39.6875 L 1.6875 -39.6875 L 1.6875 -53.859375 Z M 9.453125 -53.859375 "/></g></g></g><g fill="#ffffff" fill-opacity="1"><g transform="translate(317.258765, 708.378759)"><g><path d="M 29.71875 -55.4375 C 32.789062 -55.4375 35.832031 -55.085938 38.84375 -54.390625 C 41.851562 -53.691406 44.09375 -52.992188 45.5625 -52.296875 L 47.78125 -51.234375 L 41.6875 -39.0625 C 37.488281 -41.300781 33.5 -42.421875 29.71875 -42.421875 C 27.613281 -42.421875 26.125 -42.191406 25.25 -41.734375 C 24.375 -41.285156 23.9375 -40.429688 23.9375 -39.171875 C 23.9375 -38.890625 23.972656 -38.609375 24.046875 -38.328125 C 24.117188 -38.046875 24.257812 -37.78125 24.46875 -37.53125 C 24.675781 -37.289062 24.867188 -37.082031 25.046875 -36.90625 C 25.222656 -36.726562 25.519531 -36.535156 25.9375 -36.328125 C 26.351562 -36.117188 26.679688 -35.960938 26.921875 -35.859375 C 27.171875 -35.753906 27.578125 -35.59375 28.140625 -35.375 C 28.703125 -35.164062 29.117188 -35.007812 29.390625 -34.90625 C 29.671875 -34.800781 30.144531 -34.644531 30.8125 -34.4375 C 31.476562 -34.226562 31.988281 -34.085938 32.34375 -34.015625 C 34.507812 -33.390625 36.394531 -32.691406 38 -31.921875 C 39.613281 -31.148438 41.3125 -30.097656 43.09375 -28.765625 C 44.882812 -27.441406 46.269531 -25.765625 47.25 -23.734375 C 48.226562 -21.703125 48.71875 -19.390625 48.71875 -16.796875 C 48.71875 -4.546875 40.210938 1.578125 23.203125 1.578125 C 19.359375 1.578125 15.703125 0.984375 12.234375 -0.203125 C 8.765625 -1.398438 6.257812 -2.59375 4.71875 -3.78125 L 2.421875 -5.671875 L 9.96875 -18.375 C 10.53125 -17.882812 11.265625 -17.304688 12.171875 -16.640625 C 13.085938 -15.972656 14.734375 -15.0625 17.109375 -13.90625 C 19.492188 -12.757812 21.5625 -12.1875 23.3125 -12.1875 C 27.15625 -12.1875 29.078125 -13.476562 29.078125 -16.0625 C 29.078125 -17.25 28.585938 -18.175781 27.609375 -18.84375 C 26.628906 -19.507812 24.96875 -20.257812 22.625 -21.09375 C 20.28125 -21.9375 18.441406 -22.710938 17.109375 -23.421875 C 13.753906 -25.171875 11.09375 -27.144531 9.125 -29.34375 C 7.164062 -31.550781 6.1875 -34.472656 6.1875 -38.109375 C 6.1875 -43.578125 8.304688 -47.832031 12.546875 -50.875 C 16.785156 -53.914062 22.507812 -55.4375 29.71875 -55.4375 Z M 29.71875 -55.4375 "/></g></g></g><g fill="#ffffff" fill-opacity="1"><g transform="translate(363.6688, 708.378759)"><g><path d="M 67.828125 -53.859375 L 42.203125 -28.140625 L 70.34375 0 L 46.40625 0 L 24.890625 -21.53125 L 24.890625 0 L 6.296875 0 L 6.296875 -90.296875 L 24.890625 -90.296875 L 24.890625 -35.0625 L 43.6875 -53.859375 Z M 67.828125 -53.859375 "/></g></g></g><g fill="#ffffff" fill-opacity="1"><g transform="translate(426.248841, 708.378759)"><g><path d="M 47.140625 -53.859375 L 68.5625 -53.859375 L 26.25 27.296875 L 4.828125 27.296875 L 23.421875 -8.40625 L -2.09375 -53.859375 L 19.3125 -53.859375 L 34.328125 -26.25 Z M 47.140625 -53.859375 "/></g></g></g></svg>